<?xml version="1.0" encoding="UTF-8"?>
<svg id="_레이어_2" data-name="레이어 2" xmlns="http://www.w3.org/2000/svg" viewBox="0 0 291.67 48">
  <defs>
    <style>
      .cls-1 {
        fill: #808285;
      }

      .cls-1, .cls-2, .cls-3, .cls-4, .cls-5, .cls-6 {
        stroke-width: 0px;
      }

      .cls-2 {
        fill: #717171;
      }

      .cls-3 {
        fill: #b5b6b6;
      }

      .cls-4 {
        fill: #5f5f5f;
      }

      .cls-5 {
        fill: #898a89;
      }

      .cls-6 {
        fill: #fff;
      }
    </style>
  </defs>
  <g id="_레이어_1-2" data-name="레이어 1">
    <path class="cls-2" d="M48.94,18.11c-5.07-.63-10.29-.98-15.57-1.01-1.53-2.6-2.94-5.09-4.23-7.52,4.74-.11,9.46,0,14.14.32,1.71,2.64,3.63,5.34,5.65,8.21Z"/>
    <path class="cls-5" d="M36.57,28.04c-6.25-.19-12.45.11-18.39.81-.97-3.3-1.84-6.31-2.65-9.09,5.1-.68,10.39-1.09,15.78-1.16,1.59,2.85,3.35,5.97,5.27,9.44Z"/>
    <path class="cls-6" d="M66.44,47.69c-5.12-.97-10.86-1.96-17.3-2.69-2.64-5.5-5.28-10.31-7.72-14.55,6.2.43,12.03,1.31,17.43,2.39,2.68,4.49,5.3,9.44,7.59,14.85Z"/>
    <path class="cls-3" d="M18.76,44.55c-6.59.64-12.48,1.57-17.72,2.5-.53-4.73-.81-9.02-1.04-12.88,4.71-1.12,9.88-2.18,15.5-2.95.94,3.91,2.01,8.32,3.26,13.33Z"/>
    <path class="cls-5" d="M57.53,30.59c-5.39-1.04-11.17-1.85-17.24-2.23-2.08-3.56-4.02-6.74-5.75-9.65,5.41.08,10.72.51,15.85,1.21,2.26,3.23,4.7,6.74,7.14,10.68Z"/>
    <path class="cls-3" d="M45.46,44.62c-7.34-.67-14.99-.78-22.46-.26-1.51-5.07-2.81-9.52-3.98-13.45,6.17-.68,12.59-.93,19.03-.65,2.28,4.18,4.81,8.92,7.4,14.36Z"/>
    <g>
      <path class="cls-1" d="M81.99,47.83h-1.81l-2.52-3.8-1.03.93v2.86h-1.47v-7.92h1.48v3.29l3.32-3.29h1.84l-3.08,3.21,3.27,4.71Z"/>
      <path class="cls-1" d="M84.75,41.79c.89,0,1.59.29,2.09.89.51.59.76,1.32.76,2.19s-.25,1.61-.75,2.2c-.51.59-1.19.88-2.1.88s-1.6-.3-2.1-.88c-.5-.59-.75-1.32-.75-2.2s.26-1.6.76-2.19c.5-.59,1.2-.89,2.09-.89ZM84.75,46.95c.56,0,.95-.22,1.16-.66.22-.45.33-.92.33-1.43s-.12-.98-.35-1.41c-.23-.44-.61-.66-1.15-.66s-.92.22-1.15.66c-.23.44-.35.91-.36,1.41,0,.51.13.97.36,1.43.23.44.61.66,1.15.66Z"/>
      <path class="cls-1" d="M91.7,43.07l-.07-.03c-.1-.02-.19-.03-.27-.03-.09,0-.17,0-.26,0-.39,0-.74.16-1.03.46-.29.3-.45.77-.45,1.42v2.97h-1.39v-5.88h1.31v.79c.43-.48.97-.78,1.62-.93.09,0,.18,0,.26,0,.07,0,.14.01.2.02l.08.02v1.2Z"/>
      <path class="cls-1" d="M94.5,41.76c.9,0,1.6.35,2.1,1.06.49.71.68,1.49.58,2.35l-.02.06h-4.04c.01.46.12.86.32,1.19.2.33.57.5,1.1.5.46,0,.79-.12.96-.36.18-.23.28-.46.32-.69v-.05h1.31l-.02.09c-.11.62-.4,1.11-.91,1.47-.5.36-1.05.54-1.66.54-.88,0-1.56-.29-2.05-.88-.48-.59-.73-1.32-.72-2.19,0-.82.24-1.55.72-2.16.5-.63,1.16-.93,2.02-.93ZM95.8,44.4c0-.41-.11-.79-.31-1.13-.2-.34-.53-.51-.99-.51s-.83.17-1.05.5c-.22.34-.33.71-.33,1.14h2.67Z"/>
      <path class="cls-1" d="M103.08,47.73l-.1.05c-.11.06-.23.1-.38.11-.14.01-.27.02-.36.02-.14,0-.31-.05-.5-.13-.2-.08-.36-.24-.49-.48-.32.24-.64.39-.96.48-.32.09-.62.14-.9.14-.49,0-.94-.14-1.34-.44-.4-.29-.61-.74-.61-1.31s.22-.96.65-1.19c.43-.22.95-.4,1.54-.54.34-.09.7-.19,1.07-.31.37-.12.55-.3.52-.55,0-.25-.11-.45-.33-.6-.22-.15-.46-.22-.75-.22-.35,0-.63.1-.82.29-.19.18-.29.41-.33.69v.07h-1.34v-.08c.04-.77.33-1.29.88-1.57.54-.27,1.11-.41,1.69-.41.53,0,1.03.13,1.52.38.49.25.74.7.74,1.35v3.08c0,.15.01.23.03.25.02.03.08.06.15.1.04,0,.1,0,.18,0,.08,0,.15-.02.23-.05v.87ZM99.85,46.91c.39,0,.71-.11.95-.33.23-.21.35-.49.35-.81v-.85c-.21.1-.45.18-.7.23-.24.05-.48.11-.72.15-.31.07-.54.15-.7.27-.16.12-.24.3-.25.53-.03.19.06.38.25.55.19.17.46.26.82.26Z"/>
      <path class="cls-1" d="M110.29,43.53c.52.15.91.41,1.16.78.25.37.38.76.38,1.17,0,.88-.33,1.51-.99,1.89-.66.38-1.36.57-2.09.56-.85,0-1.6-.22-2.24-.67-.65-.45-.97-1.15-.98-2.11v-.08h1.45v.08c.01.56.2.97.53,1.24.33.27.78.4,1.32.42.6-.01,1.02-.15,1.23-.42.2-.26.31-.52.31-.77,0-.28-.06-.49-.18-.62-.12-.13-.25-.23-.4-.3-.26-.08-.56-.18-.92-.27-.37-.09-.81-.21-1.33-.35-.64-.16-1.09-.42-1.35-.78-.27-.36-.39-.74-.39-1.14,0-.8.31-1.39.91-1.75.61-.36,1.25-.55,1.92-.54.79,0,1.47.2,2.07.62.6.43.9,1.04.9,1.86v.08h-1.44v-.08c-.07-.47-.22-.81-.48-1.04-.26-.22-.63-.34-1.11-.34-.34,0-.64.09-.92.27-.27.18-.41.43-.4.74,0,.25.08.45.21.6.13.16.35.29.63.37.06.01.39.1,1,.26.6.16,1,.27,1.19.32Z"/>
      <path class="cls-1" d="M120.43,47.85h-1.33v-3.56c0-.44-.07-.79-.23-1.06-.15-.26-.39-.4-.74-.4-.36,0-.63.12-.8.34-.18.23-.26.59-.26,1.1v3.57h-1.32v-3.9c0-.29-.09-.55-.27-.78-.18-.22-.4-.33-.66-.33-.28,0-.54.12-.75.34-.22.23-.33.58-.33,1.06v3.61h-1.33v-5.87h1.26v.63c.3-.37.61-.59.93-.67.31-.07.54-.11.71-.11.28,0,.55.07.83.19.27.12.52.34.73.66.2-.27.43-.48.7-.63.27-.15.58-.22.92-.22.56-.02,1.03.13,1.39.46.37.33.56.85.56,1.53v4.03Z"/>
      <path class="cls-1" d="M126.54,47.73l-.09.05c-.11.06-.23.1-.38.11-.14.01-.27.02-.36.02-.14,0-.31-.05-.51-.13-.19-.08-.35-.24-.48-.48-.31.24-.64.39-.96.48-.32.09-.62.14-.9.14-.49,0-.94-.14-1.34-.44-.41-.29-.61-.74-.61-1.31s.22-.96.65-1.19c.43-.22.94-.4,1.54-.54.33-.09.69-.19,1.06-.31.38-.12.54-.3.52-.55,0-.25-.11-.45-.33-.6-.22-.15-.47-.22-.76-.22-.35,0-.63.1-.82.29-.18.18-.3.41-.33.69v.07h-1.34v-.08c.04-.77.33-1.29.87-1.57.54-.27,1.11-.41,1.7-.41.52,0,1.03.13,1.52.38.49.25.75.7.75,1.35v3.08c0,.15,0,.23.03.25.03.03.08.06.15.1.04,0,.1,0,.18,0,.08,0,.16-.02.22-.05v.87ZM123.31,46.91c.4,0,.72-.11.95-.33.23-.21.35-.49.35-.81v-.85c-.22.1-.45.18-.69.23-.24.05-.48.11-.72.15-.31.07-.54.15-.69.27-.15.12-.23.3-.26.53-.02.19.05.38.25.55.2.17.46.26.82.26Z"/>
      <path class="cls-1" d="M130.38,43.07l-.09-.03c-.09-.02-.18-.03-.26-.03-.08,0-.17,0-.25,0-.39,0-.73.16-1.03.46-.29.3-.44.77-.44,1.42v2.97h-1.4v-5.88h1.31v.79c.43-.48.97-.78,1.62-.93.09,0,.17,0,.25,0,.08,0,.14.01.19.02l.09.02v1.2Z"/>
      <path class="cls-1" d="M133.62,47.79h-.05c-.12,0-.26.02-.39.03-.13.02-.28.03-.44.03-.61,0-1.04-.14-1.29-.44-.24-.29-.36-.65-.34-1.09v-3.29h-.94v-.95h.94v-1.78h1.39v1.78h1.13v.95h-1.13v3.14c.04.27.08.44.13.53.06.08.19.13.41.16.08,0,.18,0,.27-.01.08,0,.16-.02.24-.03l.09-.02v.98Z"/>
      <path class="cls-1" d="M138.24,47.83h-1.47v-7.92h1.47v7.92Z"/>
      <path class="cls-1" d="M144.46,47.86h-1.35v-3.83c-.04-.47-.16-.78-.36-.94-.2-.16-.44-.24-.73-.25-.38,0-.68.14-.89.4-.21.26-.32.6-.32,1.01v3.6h-1.35v-5.87h1.29v.76c.23-.36.52-.6.85-.72.33-.11.61-.18.83-.19.6,0,1.08.18,1.46.53.38.35.57.85.57,1.49v4Z"/>
      <path class="cls-1" d="M148.36,40.96l-.09-.02c-.07-.03-.15-.04-.24-.05-.08,0-.19,0-.33,0-.14.02-.27.08-.35.2-.09.12-.15.27-.19.44v.65h1.07v.94h-1.07v4.71h-1.37v-4.71h-.94v-.94h.94v-.39c-.02-.71.14-1.22.51-1.51.36-.29.73-.42,1.12-.4.2,0,.36,0,.52.02.14,0,.27.03.38.06l.06.02v.97Z"/>
      <path class="cls-1" d="M151.39,41.79c.9,0,1.6.29,2.1.89.51.59.75,1.32.75,2.19s-.24,1.61-.75,2.2c-.5.59-1.2.88-2.1.88s-1.6-.3-2.1-.88c-.5-.59-.74-1.32-.74-2.2s.25-1.6.75-2.19c.5-.59,1.2-.89,2.09-.89ZM151.39,46.95c.56,0,.95-.22,1.17-.66.22-.45.33-.92.34-1.43,0-.5-.13-.98-.36-1.41-.23-.44-.61-.66-1.15-.66s-.91.22-1.15.66c-.23.44-.34.91-.35,1.41,0,.51.12.97.35,1.43.24.44.62.66,1.15.66Z"/>
      <path class="cls-1" d="M158.34,43.07l-.08-.03c-.09-.02-.19-.03-.27-.03-.08,0-.17,0-.25,0-.39,0-.74.16-1.03.46-.3.3-.44.77-.44,1.42v2.97h-1.39v-5.88h1.31v.79c.43-.48.97-.78,1.62-.93.09,0,.18,0,.26,0,.07,0,.14.01.19.02l.09.02v1.2Z"/>
      <path class="cls-1" d="M166.66,47.85h-1.32v-3.56c0-.44-.08-.79-.23-1.06-.15-.26-.4-.4-.74-.4-.36,0-.63.12-.79.34-.18.23-.26.59-.26,1.1v3.57h-1.32v-3.9c0-.29-.09-.55-.27-.78-.18-.22-.4-.33-.66-.33-.29,0-.54.12-.76.34-.21.23-.32.58-.32,1.06v3.61h-1.34v-5.87h1.26v.63c.31-.37.61-.59.93-.67.31-.07.54-.11.71-.11.27,0,.56.07.83.19.27.12.52.34.73.66.2-.27.43-.48.7-.63.27-.15.58-.22.91-.22.57-.02,1.03.13,1.39.46.37.33.55.85.55,1.53v4.03Z"/>
      <path class="cls-1" d="M172.77,47.73l-.09.05c-.1.06-.23.1-.37.11-.15.01-.27.02-.37.02-.13,0-.32-.05-.51-.13-.19-.08-.35-.24-.48-.48-.31.24-.63.39-.96.48-.32.09-.62.14-.9.14-.49,0-.93-.14-1.35-.44-.4-.29-.61-.74-.61-1.31s.22-.96.65-1.19c.44-.22.94-.4,1.54-.54.34-.09.7-.19,1.07-.31.38-.12.54-.3.52-.55,0-.25-.11-.45-.33-.6-.22-.15-.47-.22-.76-.22-.36,0-.63.1-.82.29-.18.18-.29.41-.33.69v.07h-1.34v-.08c.05-.77.33-1.29.88-1.57.54-.27,1.1-.41,1.7-.41.52,0,1.02.13,1.51.38.49.25.74.7.75,1.35v3.08c0,.15,0,.23.03.25.03.03.07.06.15.1.04,0,.1,0,.19,0,.08,0,.15-.02.22-.05v.87ZM169.54,46.91c.4,0,.72-.11.95-.33.23-.21.35-.49.35-.81v-.85c-.22.1-.45.18-.69.23-.24.05-.48.11-.73.15-.3.07-.53.15-.69.27-.16.12-.24.3-.25.53-.03.19.05.38.23.55.19.17.47.26.82.26Z"/>
      <path class="cls-1" d="M176.08,47.79h-.05c-.13,0-.26.02-.4.03-.14.02-.28.03-.43.03-.62,0-1.06-.14-1.3-.44-.25-.29-.36-.65-.34-1.09v-3.29h-.94v-.95h.94v-1.78h1.39v1.78h1.13v.95h-1.13v3.14c.03.27.08.44.13.53.05.08.18.13.4.16.09,0,.18,0,.27-.01.09,0,.16-.02.24-.03l.09-.02v.98Z"/>
      <path class="cls-1" d="M178.31,41.17h-1.54v-1.26h1.54v1.26ZM178.31,47.84h-1.54v-5.84h1.54v5.84Z"/>
      <path class="cls-1" d="M182.05,41.79c.89,0,1.59.29,2.09.89.5.59.75,1.32.75,2.19s-.25,1.61-.75,2.2c-.5.59-1.2.88-2.09.88s-1.61-.3-2.1-.88c-.5-.59-.75-1.32-.75-2.2s.25-1.6.75-2.19c.5-.59,1.2-.89,2.1-.89ZM182.05,46.95c.56,0,.95-.22,1.17-.66.22-.45.33-.92.33-1.43,0-.5-.12-.98-.35-1.41-.23-.44-.62-.66-1.15-.66s-.92.22-1.15.66c-.23.44-.35.91-.36,1.41,0,.51.12.97.36,1.43.23.44.61.66,1.15.66Z"/>
      <path class="cls-1" d="M190.55,47.86h-1.35v-3.83c-.04-.47-.17-.78-.37-.94-.2-.16-.44-.24-.73-.25-.38,0-.68.14-.89.4-.21.26-.32.6-.32,1.01v3.6h-1.35v-5.87h1.28v.76c.24-.36.52-.6.85-.72.33-.11.61-.18.84-.19.59,0,1.08.18,1.46.53.38.35.57.85.57,1.49v4Z"/>
      <path class="cls-1" d="M199.63,47.83h-5.68v-7.92h5.61v1.17h-4.15v2.1h3.83v1.12h-3.83v2.36h4.22v1.16Z"/>
      <path class="cls-1" d="M205.57,47.84h-1.28v-.57c-.41.38-.97.62-1.67.73-.89,0-1.55-.31-1.98-.92-.44-.62-.66-1.34-.66-2.17,0-1.02.25-1.78.76-2.28.52-.5,1.08-.74,1.69-.74.38,0,.71.05.98.16.28.1.55.29.82.58v-2.72h1.33v7.93ZM202.79,47.01c.57,0,.96-.22,1.17-.66.2-.44.31-.91.31-1.4,0-.64-.12-1.14-.35-1.51-.23-.37-.6-.55-1.11-.55-.53,0-.91.22-1.14.66-.23.44-.35.93-.35,1.46,0,.5.13.95.37,1.37.26.42.62.63,1.1.63Z"/>
      <path class="cls-1" d="M211.53,47.84h-1.33v-.6c-.14.19-.36.36-.65.51-.29.15-.59.23-.88.23-.73,0-1.26-.2-1.62-.61-.35-.41-.53-.98-.53-1.7v-3.7h1.36v3.66c0,.37.09.68.27.94.19.27.45.41.79.41.39,0,.7-.11.92-.32.21-.21.33-.58.33-1.11v-3.58h1.35v5.87Z"/>
      <path class="cls-1" d="M217.54,45.48v.1c-.12.74-.4,1.32-.86,1.74-.46.41-1.04.62-1.75.62-.89,0-1.57-.29-2.05-.88-.48-.59-.72-1.31-.71-2.14,0-.85.23-1.59.7-2.21.47-.62,1.17-.93,2.1-.93.63,0,1.2.18,1.71.53.52.35.8.88.85,1.6v.1s-1.34,0-1.34,0v-.07c-.06-.33-.18-.6-.4-.82-.21-.21-.48-.32-.82-.33-.31.02-.62.16-.95.43-.33.27-.49.84-.51,1.71,0,.5.12.96.35,1.39.23.42.58.64,1.06.64.34-.01.61-.14.83-.4.21-.25.35-.58.42-.99v-.07h1.36Z"/>
      <path class="cls-1" d="M223.54,47.73l-.1.05c-.1.06-.23.1-.38.11-.14.01-.26.02-.36.02-.14,0-.31-.05-.5-.13-.19-.08-.36-.24-.49-.48-.32.24-.64.39-.96.48-.32.09-.62.14-.9.14-.49,0-.93-.14-1.34-.44-.41-.29-.62-.74-.62-1.31s.22-.96.65-1.19c.43-.22.95-.4,1.54-.54.34-.09.7-.19,1.07-.31.37-.12.54-.3.52-.55,0-.25-.1-.45-.32-.6-.22-.15-.47-.22-.76-.22-.36,0-.63.1-.81.29-.19.18-.3.41-.33.69v.07h-1.34v-.08c.03-.77.33-1.29.87-1.57.55-.27,1.11-.41,1.7-.41.52,0,1.03.13,1.52.38.49.25.73.7.75,1.35v3.08c0,.15,0,.23.03.25.02.03.07.06.14.1.05,0,.11,0,.19,0,.09,0,.16-.02.23-.05v.87ZM220.3,46.91c.4,0,.72-.11.95-.33.23-.21.35-.49.35-.81v-.85c-.21.1-.45.18-.69.23-.24.05-.48.11-.72.15-.31.07-.53.15-.69.27-.16.12-.24.3-.25.53-.03.19.06.38.25.55.19.17.46.26.81.26Z"/>
      <path class="cls-1" d="M226.85,47.79h-.05c-.13,0-.26.02-.4.03-.13.02-.28.03-.44.03-.62,0-1.05-.14-1.3-.44-.25-.29-.36-.65-.34-1.09v-3.29h-.95v-.95h.95v-1.78h1.39v1.78h1.13v.95h-1.13v3.14c.04.27.07.44.13.53.05.08.19.13.41.16.09,0,.17,0,.26-.01.09,0,.16-.02.24-.03l.09-.02v.98Z"/>
      <path class="cls-1" d="M229.07,41.17h-1.55v-1.26h1.55v1.26ZM229.07,47.84h-1.55v-5.84h1.55v5.84Z"/>
      <path class="cls-1" d="M232.81,41.79c.9,0,1.6.29,2.09.89.51.59.75,1.32.75,2.19s-.25,1.61-.75,2.2c-.49.59-1.19.88-2.1.88s-1.6-.3-2.09-.88c-.5-.59-.75-1.32-.75-2.2s.25-1.6.75-2.19c.5-.59,1.19-.89,2.09-.89ZM232.81,46.95c.56,0,.96-.22,1.17-.66.22-.45.33-.92.34-1.43,0-.5-.13-.98-.35-1.41-.23-.44-.62-.66-1.15-.66s-.92.22-1.15.66c-.23.44-.35.91-.35,1.41,0,.51.13.97.35,1.43.23.44.61.66,1.15.66Z"/>
      <path class="cls-1" d="M241.31,47.86h-1.35v-3.83c-.04-.47-.16-.78-.36-.94-.2-.16-.44-.24-.73-.25-.39,0-.68.14-.89.4-.21.26-.32.6-.32,1.01v3.6h-1.35v-5.87h1.28v.76c.24-.36.53-.6.85-.72.33-.11.61-.18.83-.19.6,0,1.09.18,1.46.53.38.35.57.85.57,1.49v4Z"/>
      <path class="cls-1" d="M247.56,47.73l-.09.05c-.11.06-.24.1-.38.11-.15.01-.27.02-.37.02-.14,0-.31-.05-.5-.13-.2-.08-.36-.24-.48-.48-.32.24-.64.39-.97.48-.32.09-.62.14-.9.14-.49,0-.93-.14-1.35-.44-.4-.29-.6-.74-.6-1.31s.21-.96.64-1.19c.43-.22.95-.4,1.54-.54.34-.09.7-.19,1.07-.31.37-.12.54-.3.52-.55,0-.25-.11-.45-.32-.6-.22-.15-.47-.22-.76-.22-.35,0-.63.1-.82.29-.19.18-.3.41-.33.69v.07h-1.35v-.08c.05-.77.33-1.29.87-1.57.55-.27,1.11-.41,1.7-.41.52,0,1.03.13,1.52.38.49.25.74.7.74,1.35v3.08c0,.15.02.23.04.25.03.03.07.06.15.1.03,0,.1,0,.18,0,.08,0,.16-.02.22-.05v.87ZM244.32,46.91c.4,0,.72-.11.96-.33.23-.21.35-.49.35-.81v-.85c-.21.1-.45.18-.69.23-.25.05-.48.11-.73.15-.3.07-.53.15-.69.27-.15.12-.24.3-.26.53-.02.19.06.38.25.55.19.17.45.26.81.26Z"/>
      <path class="cls-1" d="M249.51,47.83h-1.55v-7.92h1.55v7.92Z"/>
      <path class="cls-1" d="M254.6,47.83h-1.47v-7.92h1.47v7.92Z"/>
      <path class="cls-1" d="M260.83,47.86h-1.35v-3.83c-.04-.47-.16-.78-.36-.94-.2-.16-.44-.24-.73-.25-.39,0-.68.14-.9.4-.21.26-.32.6-.32,1.01v3.6h-1.35v-5.87h1.28v.76c.24-.36.53-.6.86-.72.33-.11.61-.18.83-.19.6,0,1.09.18,1.46.53.39.35.57.85.57,1.49v4Z"/>
      <path class="cls-1" d="M264.58,44.24c.39.09.81.26,1.26.52.45.26.66.67.66,1.23,0,.76-.28,1.26-.85,1.52-.56.27-1.12.4-1.68.4-.68.01-1.27-.15-1.77-.5-.5-.34-.75-.87-.76-1.57v-.08h1.35v.06c.04.35.16.61.36.78.21.18.48.27.83.29.27,0,.53-.04.79-.15.26-.11.39-.33.39-.65,0-.27-.16-.46-.47-.57-.31-.1-.72-.21-1.23-.3-.41-.09-.83-.25-1.25-.49-.42-.23-.64-.66-.64-1.27,0-.69.28-1.14.83-1.37.56-.23,1.07-.35,1.55-.35.57,0,1.08.13,1.56.39.47.26.75.74.81,1.44l.02.1h-1.41v-.08c-.06-.25-.15-.46-.3-.61-.15-.15-.41-.23-.78-.23-.26,0-.48.05-.67.15-.18.11-.26.27-.26.51,0,.2.14.37.46.5.29.12.7.23,1.21.33Z"/>
      <path class="cls-1" d="M270.04,47.79h-.05c-.13,0-.26.02-.4.03-.13.02-.28.03-.44.03-.61,0-1.05-.14-1.3-.44-.25-.29-.36-.65-.33-1.09v-3.29h-.95v-.95h.95v-1.78h1.39v1.78h1.12v.95h-1.12v3.14c.03.27.07.44.13.53.04.08.18.13.4.16.09,0,.19,0,.27-.01.09,0,.17-.02.24-.03l.08-.02v.98Z"/>
      <path class="cls-1" d="M272.27,41.17h-1.54v-1.26h1.54v1.26ZM272.27,47.84h-1.54v-5.84h1.54v5.84Z"/>
      <path class="cls-1" d="M276.34,47.79h-.06c-.13,0-.26.02-.39.03-.14.02-.28.03-.44.03-.62,0-1.05-.14-1.29-.44-.25-.29-.37-.65-.34-1.09v-3.29h-.95v-.95h.95v-1.78h1.4v1.78h1.13v.95h-1.13v3.14c.03.27.07.44.13.53.05.08.19.13.4.16.09,0,.18,0,.27-.01.08,0,.16-.02.23-.03l.1-.02v.98Z"/>
      <path class="cls-1" d="M282,47.84h-1.33v-.6c-.14.19-.36.36-.65.51-.3.15-.59.23-.89.23-.72,0-1.25-.2-1.6-.61-.35-.41-.53-.98-.53-1.7v-3.7h1.35v3.66c0,.37.09.68.27.94.18.27.44.41.79.41.4,0,.71-.11.92-.32.21-.21.32-.58.32-1.11v-3.58h1.35v5.87Z"/>
      <path class="cls-1" d="M285.82,47.79h-.05c-.13,0-.26.02-.39.03-.14.02-.29.03-.44.03-.62,0-1.05-.14-1.3-.44-.25-.29-.36-.65-.34-1.09v-3.29h-.94v-.95h.94v-1.78h1.4v1.78h1.12v.95h-1.12v3.14c.03.27.07.44.13.53.06.08.18.13.4.16.09,0,.19,0,.27-.01.08,0,.16-.02.24-.03l.08-.02v.98Z"/>
      <path class="cls-1" d="M288.96,41.76c.91,0,1.61.35,2.1,1.06.49.71.68,1.49.58,2.35v.06h-4.06c0,.46.11.86.31,1.19.2.33.57.5,1.11.5.46,0,.78-.12.96-.36.16-.23.27-.46.32-.69v-.05h1.31l-.02.09c-.1.62-.4,1.11-.91,1.47-.5.36-1.05.54-1.66.54-.89,0-1.57-.29-2.06-.88-.49-.59-.73-1.32-.72-2.19,0-.82.23-1.55.73-2.16.49-.63,1.16-.93,2.01-.93ZM290.27,44.4c0-.41-.1-.79-.3-1.13-.2-.34-.54-.51-1-.51s-.83.17-1.04.5c-.22.34-.33.71-.33,1.14h2.67Z"/>
    </g>
    <g>
      <path class="cls-6" d="M75.23,16.59v-2.24h5.37v-1.16c0-.49-.18-.82-.55-1.02-.36-.19-.56-.29-.59-.31l.52-.86,4.34.41s-.07.22-.16.57c-.07.34-.12.65-.12.92v1.46h5.08v2.24h-13.9ZM86.07,18.68c1.17.88,1.76,2.04,1.76,3.48s-.58,2.62-1.73,3.48c-1.15.87-2.43,1.3-3.82,1.3s-2.65-.44-3.8-1.31c-1.16-.88-1.74-2.03-1.74-3.48s.58-2.6,1.75-3.48c1.17-.87,2.43-1.31,3.78-1.31s2.62.44,3.79,1.31ZM84.06,23.94c.48-.54.72-1.15.72-1.81s-.24-1.28-.72-1.82c-.48-.55-1.07-.82-1.78-.82s-1.3.27-1.77.82c-.46.55-.71,1.15-.71,1.82s.24,1.27.71,1.81c.47.54,1.06.81,1.77.81s1.3-.26,1.78-.81ZM83.42,36.11c-.25,0-.48-.08-.69-.25-.2-.16-.31-.42-.31-.76v-4.13c0-.63-.2-1.03-.58-1.22-.39-.18-.6-.28-.64-.3l.44-.97,4.02.33s-.06.24-.1.61c-.04.37-.07.76-.07,1.17v3.24h9.45v2.27h-11.52ZM94.1,21.08v6.16l-.25,2.68h-2.66v-15.6c0-.51-.13-.94-.4-1.3-.27-.36-.61-.66-1-.89l-1.36-.79.55-.81,5.81.76s-.13.36-.36.99c-.21.62-.32,1.29-.32,2.01v4.49h4.09v2.3h-4.09Z"/>
      <path class="cls-6" d="M110.06,22.88v4.6h5.1s-.03.28-.08.72c-.05.44-.08.89-.08,1.34v4.54l-.25,2.19h-2.9v-6.54h-10.18v-2.25h5.02v-4.6h-9.23v-2.13h14.01c.22-1.15.37-2.25.46-3.29.08-1.03.13-2.04.13-3.01h-10.73v-2.24h14.34s-.05.32-.09.85c-.05.54-.07.98-.07,1.34,0,.54-.09,1.46-.27,2.74-.18,1.29-.43,2.49-.74,3.61h4.78v2.13h-9.24Z"/>
      <path class="cls-6" d="M119.74,28.94v-2.36h20.74v2.36h-20.74ZM136.92,22.83l-7.34-4.87c-1.1,1.09-2.31,2.09-3.62,2.96-1.3.88-2.46,1.54-3.47,2.02l-1.68-1.43c1.34-.65,2.92-1.8,4.75-3.46,1.83-1.66,2.74-3.12,2.74-4.38,0-.42-.2-.74-.61-.97-.4-.23-.63-.36-.66-.38l.63-.98,4.91.63c.16.02.27.06.33.13.05.07.07.18.05.33-.07.65-.29,1.32-.65,2-.36.69-.81,1.36-1.36,2.03l8.28,3.95-2.31,2.44Z"/>
      <path class="cls-6" d="M152.61,24.32c0,.29-.09.53-.26.74-.18.2-.42.31-.72.31h-8.77c-.3,0-.52-.09-.68-.27-.16-.18-.24-.44-.24-.78v-8.41c0-.52-.16-.88-.48-1.07-.31-.19-.49-.28-.53-.28v-.92h11.68v10.68ZM149.65,15.91h-4.72v7.13h4.72v-7.13ZM159.27,20.43v9.6l-.38,3.24h-2.55V14.39c0-.5-.14-.94-.42-1.32-.27-.38-.62-.68-1.02-.89l-1.46-.84.52-.81,6,.76c-.02.05-.14.39-.35,1.01-.22.62-.33,1.29-.33,2.02v3.78h4.12v2.32h-4.12Z"/>
      <path class="cls-6" d="M163.17,29.43v-2.32h20.75v2.32h-20.75ZM167.85,23.62c-.32,0-.56-.08-.72-.25-.18-.16-.26-.41-.26-.73v-7.81c0-.59-.16-.96-.48-1.11-.31-.15-.49-.23-.53-.24v-1.02h14.68v2.24h-10.45v2.28h10.21v2.16h-10.21v2.3h10.62v2.19h-12.87Z"/>
    </g>
    <g>
      <path class="cls-6" d="M196.14,24.91l-4.05-3.97c-1.05.94-2.18,1.78-3.39,2.54-1.21.75-2.4,1.41-3.59,1.94l-1.6-1.46c1.66-.85,3.41-2.02,5.22-3.53,1.82-1.51,3.05-3.24,3.68-5.21h-6.76v-2.19h10.78c.11,0,.21.04.31.12.1.08.13.2.09.37-.2,1.1-.6,2.15-1.18,3.15-.59,1-1.3,1.95-2.13,2.85l5,3.05-2.39,2.33ZM201.39,27.5c1.3.97,1.94,2.24,1.94,3.83s-.63,2.92-1.91,3.88c-1.28.96-2.69,1.45-4.23,1.45s-2.91-.49-4.18-1.46c-1.26-.98-1.9-2.27-1.9-3.87s.64-2.86,1.92-3.83c1.27-.96,2.66-1.45,4.17-1.45s2.9.48,4.2,1.45ZM199.36,33.47c.6-.64.91-1.37.91-2.18s-.31-1.51-.91-2.13c-.6-.63-1.33-.95-2.16-.95s-1.55.31-2.16.95c-.61.63-.91,1.34-.91,2.13s.3,1.54.91,2.18c.6.64,1.33.96,2.16.96s1.56-.32,2.16-.96ZM204.48,11.29s-.14.36-.36.99c-.22.62-.33,1.29-.33,2.01v9.57l-.25,2.16h-2.66v-6.49h-4.59v-2.3h4.59v-2.92c0-.51-.13-.94-.4-1.3-.28-.36-.61-.66-1.01-.89l-1.36-.79.54-.81,5.81.76Z"/>
      <path class="cls-6" d="M206.35,29.32v-2.27h8.91v-3.65h-4c-.28,0-.53-.08-.71-.24-.18-.16-.27-.43-.27-.81v-7.62c0-.6-.22-.99-.67-1.18-.44-.19-.69-.29-.75-.3l.52-1.03,4.18.41s-.02.21-.06.57c-.05.36-.08.75-.08,1.16v1.46h7.39v-1.7c0-.6-.21-.99-.63-1.19-.41-.2-.64-.3-.67-.32l.48-.92,4.19.43s-.07.25-.13.62c-.07.38-.09.8-.09,1.25v8.38c0,.38-.1.65-.29.81-.19.16-.44.24-.74.24h-4.21v3.65h8.91v2.27h-21.29ZM220.83,18.05h-7.39v3.06h7.39v-3.06Z"/>
      <path class="cls-6" d="M227.94,29.08v-2.24h5.67v-5.25c0-.68-.17-1.12-.49-1.32-.32-.2-.5-.31-.54-.33l.33-.86,3.89.3s-.03.27-.07.72c0,.44-.02.81-.02,1.12v5.62h2.41v-5.86c0-.58-.12-.96-.37-1.14-.25-.18-.39-.28-.42-.29l.38-.84,3.52.24s-.04.27-.06.72c-.02.44-.04.81-.04,1.12v6.05h7.36v2.24h-21.56ZM246.92,12.45s-.03.32-.08.86c-.05.54-.07.99-.07,1.35,0,1.03-.1,2.47-.29,4.33-.19,1.85-.46,3.5-.83,4.95h-2.79c.26-1.66.41-3.22.47-4.67.07-1.45.1-2.58.1-3.39v-1.19h-11.84v-2.24h15.34Z"/>
      <path class="cls-6" d="M265.44,25.32v2.78h1.79s-.03.28-.08.72c-.05.44-.09.89-.09,1.34v4.11l-.24,2.19h-2.91v-6.11h-10.18v-2.24h1.82v-2.78h-6.02v-2.16h21.83v2.16h-5.93ZM264.82,12.45c1.36.97,2.03,2.28,2.03,3.95s-.68,2.96-2.03,3.91c-1.36.94-2.82,1.42-4.37,1.42s-2.99-.48-4.34-1.42c-1.35-.95-2.02-2.24-2.02-3.88s.67-2.97,2-3.96c1.35-.98,2.79-1.47,4.36-1.47s3,.48,4.37,1.46ZM262.68,18.56c.63-.63.94-1.37.94-2.22s-.31-1.61-.94-2.22c-.63-.61-1.37-.92-2.23-.92s-1.62.31-2.25.92c-.62.61-.93,1.35-.93,2.22s.31,1.59.93,2.22c.63.63,1.38.94,2.25.94s1.61-.31,2.23-.94ZM262.13,25.32h-3.29v2.78h3.29v-2.78Z"/>
      <path class="cls-6" d="M286.49,23.67c-.84.18-1.77.34-2.79.5-1.04.15-2.12.27-3.23.36v3.62h-3.17v-3.43c-.21.02-.4.02-.6.02h-4.92v-2.35h5.19c1.68,0,3.33-.1,4.95-.3,1.62-.2,3.14-.45,4.58-.75v2.33ZM282.83,12.95c1.2.87,1.8,2.07,1.8,3.6s-.61,2.72-1.8,3.57c-1.21.85-2.51,1.27-3.93,1.27s-2.72-.42-3.94-1.27c-1.21-.85-1.82-2.04-1.82-3.57s.6-2.74,1.8-3.6c1.2-.88,2.52-1.31,3.95-1.31s2.72.43,3.93,1.31ZM280.82,18.44c.52-.54.77-1.18.77-1.94s-.26-1.4-.77-1.93c-.52-.54-1.16-.8-1.91-.8s-1.4.26-1.91.8c-.52.53-.77,1.17-.77,1.93s.25,1.4.77,1.94c.51.53,1.15.8,1.91.8s1.4-.26,1.91-.8ZM279.75,35.92c-.26,0-.48-.07-.69-.23-.21-.15-.32-.4-.32-.74v-3.33c0-.63-.2-1.04-.58-1.23-.4-.18-.6-.29-.64-.31l.44-.97,4.02.32s-.02.25-.08.63c-.06.38-.09.76-.09,1.16v2.45h9.73v2.25h-11.79ZM291.37,11.29s-.13.36-.35.99c-.21.62-.33,1.29-.33,2.01v13.22l-.24,2.68h-2.66v-2.65h-4.97v-2.24h4.97v-10.98c0-.51-.13-.94-.39-1.31-.26-.37-.58-.67-.98-.91l-1.3-.76.52-.81,5.72.76Z"/>
    </g>
    <g>
      <path class="cls-4" d="M184.24,6.75h-7.15c-.07,0-.12-.02-.14-.05s-.03-.08-.03-.13v-.61c0-.06,0-.11.03-.14s.06-.04.14-.04h2.99v-1.66c0-.06.01-.1.03-.13.02-.02.07-.03.13-.03h.82c.07,0,.11.01.13.03.02.02.03.07.03.13v1.66h3.01c.12,0,.17.06.17.18v.61c0,.12-.06.18-.17.18ZM177.97,4.42c-.08.03-.13.04-.16.03-.03-.01-.06-.04-.09-.1l-.32-.59c-.07-.13-.06-.21.04-.25.41-.15.76-.33,1.07-.53.31-.2.57-.42.79-.67.22-.25.39-.53.51-.83.12-.31.21-.65.25-1.03.01-.06.03-.11.05-.13s.07-.04.15-.03l.79.05c.1.01.16.03.18.05s.02.08.01.16c-.01.16-.03.31-.05.45.08.28.2.54.37.79.17.24.37.46.6.66.23.2.49.37.77.52s.57.27.87.36c.07.02.11.05.12.08,0,.03,0,.08-.04.15l-.3.63s-.04.06-.04.08c0,.02-.02.03-.03.03-.02.02-.07.02-.13,0-.24-.06-.49-.15-.74-.27-.25-.12-.5-.26-.74-.43-.24-.16-.46-.35-.67-.56-.21-.21-.38-.43-.53-.67-.29.48-.67.89-1.14,1.24-.47.35-.99.62-1.56.82Z"/>
      <path class="cls-4" d="M192.89,6.69h-7.15c-.07,0-.12-.02-.14-.05s-.03-.08-.03-.13v-.61c0-.06,0-.11.03-.14s.06-.04.14-.04h7.15c.12,0,.17.06.17.18v.61c0,.12-.06.18-.17.18ZM192.09,4.52h-5.56c-.12,0-.18-.06-.18-.19v-.6c0-.11.06-.16.18-.16h.92V1.54h-.77c-.13,0-.19-.06-.19-.19v-.6c0-.06.02-.11.05-.14s.08-.04.14-.04h5.27c.12,0,.18.06.18.18v.61c0,.12-.06.18-.18.18h-.78v2.02h.92c.12,0,.18.05.18.16v.61c0,.12-.06.19-.18.19ZM188.6,3.56h1.43V1.54h-1.43v2.02Z"/>
      <path class="cls-4" d="M201.55,6.69h-7.15c-.07,0-.12-.02-.14-.05s-.03-.08-.03-.13v-.61c0-.06,0-.11.03-.14s.06-.04.14-.04h7.15c.12,0,.17.06.17.18v.61c0,.12-.06.18-.17.18ZM200.54,4.65h-4.6c-.24,0-.42-.06-.52-.17s-.16-.28-.16-.51V1.04c0-.24.05-.4.15-.48.1-.08.27-.12.5-.12h4.59c.11,0,.16.05.16.16v.64c0,.06-.01.1-.03.13-.02.02-.06.03-.12.03h-3.94c-.09,0-.14.05-.14.14v.52h3.96c.12,0,.17.06.17.18v.59c0,.12-.06.18-.17.18h-3.96v.55c0,.09.05.14.14.14h3.98c.13,0,.19.05.19.14v.64c0,.11-.06.17-.19.17Z"/>
      <path class="cls-4" d="M205.34,7.59h-.78c-.12,0-.17-.06-.17-.19v-2.33c-.45.02-.91.02-1.37,0-.07,0-.11-.02-.13-.05-.02-.03-.03-.07-.03-.14v-.59c0-.07.01-.11.03-.14s.06-.03.12-.03c.72.02,1.39,0,2-.03s1.2-.09,1.77-.16c.08-.01.13,0,.15.01.02.02.04.06.05.12l.08.62c0,.06,0,.1-.04.12-.03.02-.07.03-.13.04-.21.03-.43.06-.66.09s-.46.05-.7.07v2.39c0,.12-.06.19-.18.19ZM204.91,3.79c-.24,0-.47-.04-.69-.13-.22-.08-.4-.2-.57-.35-.16-.15-.29-.32-.38-.52-.09-.2-.14-.41-.14-.64s.05-.44.14-.64c.09-.2.22-.38.38-.53.16-.15.35-.27.57-.36.22-.09.45-.13.69-.13s.48.04.7.13c.22.09.41.21.57.36.16.15.29.32.38.53.09.2.14.41.14.64s-.05.44-.14.64c-.09.2-.22.37-.38.52-.16.15-.35.27-.57.35-.22.08-.45.13-.7.13ZM204.91,1.45c-.22,0-.4.07-.52.22-.13.14-.19.31-.19.49,0,.09.02.18.05.26s.08.16.15.23c.06.07.14.12.22.16.09.04.18.06.3.06s.22-.02.31-.06c.09-.04.16-.09.22-.16.06-.07.11-.14.14-.23s.05-.17.05-.26c0-.18-.06-.34-.19-.49-.12-.14-.3-.22-.54-.22ZM208.22,7.77h-.77c-.06,0-.11-.01-.13-.03-.03-.02-.04-.06-.04-.13v-1.39h-1.05c-.06,0-.1,0-.13-.03-.03-.02-.04-.06-.04-.12v-.62c0-.08.02-.13.05-.14s.07-.02.12-.02h1.05V.3c0-.06.01-.1.04-.13s.07-.03.13-.03h.77c.06,0,.1.01.12.03s.03.07.03.13v7.31c0,.07-.01.11-.03.13-.02.02-.06.03-.12.03ZM209.82,8.15h-.82c-.06,0-.1-.01-.12-.03-.02-.02-.03-.06-.03-.13V.16c0-.06.01-.1.04-.13.02-.02.07-.03.13-.03h.81c.06,0,.1.01.12.03s.03.07.03.13v7.82c0,.06,0,.1-.03.13s-.06.03-.12.03Z"/>
      <path class="cls-4" d="M214.03,6.21c-.32,0-.6-.07-.86-.22-.25-.15-.47-.35-.65-.6-.18-.25-.32-.55-.42-.9s-.15-.72-.15-1.12.05-.8.15-1.15.24-.65.42-.91c.18-.25.4-.45.65-.6.25-.14.54-.22.86-.22.29,0,.55.06.79.17.24.12.44.28.62.48.17.21.32.46.43.75.11.29.19.61.22.96h1.09V.16c0-.06,0-.1.03-.13.02-.02.06-.03.12-.03h.84c.06,0,.1.01.12.03.02.02.03.07.03.13v7.81c0,.07-.01.11-.03.13-.02.02-.06.03-.12.03h-.84c-.06,0-.1,0-.12-.03-.02-.02-.03-.06-.03-.13V3.82h-1.08c-.03.36-.11.68-.22.97-.11.29-.25.54-.43.75s-.39.38-.63.49c-.24.12-.51.17-.79.17ZM214.03,1.5c-.14,0-.26.05-.38.14-.11.09-.21.22-.29.39-.08.17-.15.36-.2.59-.05.23-.07.47-.07.75s.02.5.07.72c.05.22.11.42.2.58.08.17.18.3.29.39.11.09.24.14.38.14s.28-.05.4-.14.22-.23.31-.39.15-.36.2-.58c.05-.23.07-.47.07-.72,0-.27-.02-.52-.07-.75-.05-.23-.11-.42-.2-.59-.09-.17-.19-.3-.31-.39-.12-.09-.25-.14-.4-.14Z"/>
      <path class="cls-4" d="M220.99,6.21c-.07.05-.12.06-.15.06-.03,0-.07-.04-.11-.09l-.38-.54c-.04-.06-.07-.11-.07-.15,0-.04.03-.07.09-.11.36-.24.67-.5.95-.79s.52-.59.72-.9c.2-.31.36-.63.48-.95s.19-.62.22-.91c.02-.15-.04-.22-.17-.22h-1.71c-.11,0-.17-.05-.17-.16v-.63c0-.11.05-.17.17-.17h2.4c.26,0,.43.05.52.15.08.1.12.28.12.53,0,.47-.07.94-.2,1.4s-.33.9-.58,1.31c-.25.42-.56.81-.92,1.18s-.77.7-1.22.99ZM227.14,8.13h-.84c-.06,0-.1,0-.12-.03-.02-.02-.03-.06-.03-.12v-3.97h-.66v3.65c0,.07,0,.12-.03.13-.02.01-.06.02-.12.02h-.78c-.06,0-.1,0-.12-.02-.02-.01-.03-.06-.03-.13V.31c0-.06.01-.1.03-.12.02-.02.06-.03.12-.03h.78c.06,0,.1,0,.12.03s.03.06.03.12v2.75h.66V.15c0-.06.01-.1.03-.12s.06-.03.12-.03h.83c.06,0,.1.01.12.03s.03.06.03.12v7.82c0,.06,0,.1-.03.12-.02.02-.06.03-.12.03Z"/>
      <path class="cls-4" d="M232.6,3.87h-2.51c-.13,0-.24,0-.33-.03-.09-.02-.15-.05-.2-.09s-.08-.1-.1-.18-.03-.18-.03-.3V.31c0-.11.05-.16.15-.16h.84c.11,0,.17.05.17.16v.82h1.48V.3c0-.11.06-.17.17-.17h.83c.1,0,.16.06.16.17v2.99c0,.21-.04.36-.12.45-.08.08-.25.13-.51.13ZM235.32,8.17h-4.49c-.12,0-.22,0-.3-.03-.08-.02-.13-.05-.17-.09-.04-.04-.07-.1-.09-.17-.02-.07-.03-.16-.03-.26v-1.14c0-.11,0-.2.02-.26.01-.07.04-.12.08-.17.04-.04.1-.07.17-.09.07-.02.17-.03.29-.03h3.25s.07-.03.07-.09v-.23c0-.07-.03-.1-.08-.1h-3.65c-.06,0-.11-.01-.13-.03-.03-.02-.04-.07-.04-.14v-.58c0-.11.06-.16.17-.16h4.28c.25,0,.41.04.48.12.07.08.11.22.11.42v1.13c0,.11,0,.21-.02.28s-.04.13-.08.17c-.04.04-.1.07-.17.08-.08.01-.18.02-.3.02h-3.22c-.06,0-.09.03-.09.08v.26c0,.06.03.09.1.09h3.83c.06,0,.11,0,.13.03.03.02.04.06.04.14v.58c0,.11-.06.17-.17.17ZM232.07,2.05h-1.48v.76c0,.08.04.13.12.13h1.23c.08,0,.12-.04.12-.13v-.76ZM236.29,2.6h-1.03v1.42c0,.06,0,.1-.03.13s-.06.03-.12.03h-.84c-.06,0-.1-.01-.13-.03-.03-.02-.04-.06-.04-.13V.16c0-.06.01-.1.04-.13.02-.02.07-.03.13-.03h.84c.06,0,.1.01.12.03s.03.07.03.13v1.48h1.03s.08,0,.12.03c.03.02.05.06.05.13v.65c0,.06-.02.1-.05.13s-.07.03-.12.03Z"/>
      <path class="cls-4" d="M241.55,5.09c-.09.04-.16.06-.2.04s-.07-.05-.1-.09l-.36-.59c-.06-.08-.02-.16.11-.24.29-.17.56-.35.82-.55.26-.2.5-.4.71-.62s.4-.43.55-.65.28-.44.37-.64c.04-.11.06-.17.04-.2-.02-.03-.07-.04-.15-.04h-1.82c-.08,0-.12-.02-.14-.05-.01-.03-.02-.08-.02-.13v-.61c0-.12.05-.19.17-.19h2.75c.33,0,.54.08.61.25.07.16.06.39-.03.68-.08.23-.19.47-.31.7s-.27.47-.45.71c.11.12.22.24.35.36.13.12.26.22.39.33.13.1.26.19.39.28s.24.16.35.23c.09.06.1.13.04.21l-.42.62s-.06.07-.09.07-.08-.01-.14-.05c-.08-.05-.19-.12-.31-.21-.12-.09-.25-.19-.39-.3-.14-.11-.28-.23-.42-.37-.14-.13-.27-.26-.4-.39-.27.29-.57.56-.89.8-.32.25-.66.46-1.02.64ZM247.54,7.99h-4.49c-.12,0-.21,0-.29-.03-.08-.02-.13-.05-.17-.1-.04-.05-.07-.11-.09-.19s-.03-.18-.03-.3v-1.89c0-.12.06-.18.17-.18h.82c.11,0,.17.06.17.18v1.41c0,.08.04.13.13.13h3.77s.08,0,.12.03c.03.02.05.06.05.12v.66c0,.08-.02.12-.05.13-.03.01-.07.02-.12.02ZM245.12,3.1c-.11,0-.16-.05-.16-.16v-.64c0-.07.02-.12.05-.14.03-.02.07-.03.11-.03h1.14V.16c0-.11.05-.16.15-.16h.84c.11,0,.16.05.16.16v5.43c0,.06-.01.1-.03.13-.02.02-.06.03-.12.03h-.84c-.06,0-.1-.01-.12-.03s-.03-.07-.03-.13v-2.49h-1.14Z"/>
      <path class="cls-4" d="M256.64,4.82h-2.93v1.34c0,.06-.01.1-.04.13-.03.02-.07.03-.14.03h-.82c-.07,0-.11-.01-.13-.03-.02-.02-.03-.06-.03-.13v-1.34h-3.06c-.07,0-.12-.02-.14-.05-.02-.03-.03-.08-.03-.14v-.6c0-.06,0-.11.03-.14s.06-.04.14-.04h7.15c.12,0,.17.06.17.18v.6c0,.12-.06.19-.17.19ZM255.78,7.99h-4.81c-.12,0-.21,0-.29-.03-.07-.02-.13-.05-.17-.1-.04-.05-.07-.11-.09-.19s-.03-.18-.03-.3v-1.86c0-.12.06-.18.17-.18h.82c.11,0,.17.06.17.18v1.37c0,.08.04.13.13.13h4.1s.08,0,.12.03c.04.02.05.06.05.12v.66c0,.08-.02.12-.05.13-.04.01-.08.02-.12.02ZM255.08,3.25h-4c-.13,0-.23,0-.31-.02-.08-.01-.14-.04-.18-.08-.04-.04-.07-.1-.09-.18-.02-.08-.02-.18-.02-.3V.81c0-.12,0-.21.03-.29.02-.07.05-.13.1-.17.05-.04.11-.07.18-.08.07-.01.16-.02.26-.02h4.04c.12,0,.21,0,.28.02.07.01.13.04.17.08.04.04.07.1.09.17s.03.17.03.3v1.85c0,.12,0,.23-.03.3s-.05.14-.09.18c-.04.04-.1.07-.17.08-.07.01-.17.02-.28.02ZM254.5,1.37c0-.07,0-.12-.02-.14-.01-.02-.05-.03-.12-.03h-2.59c-.07,0-.12,0-.13.03-.02.02-.03.07-.03.14v.76c0,.08,0,.13.03.14.02.02.06.03.13.03h2.59c.07,0,.11,0,.12-.03.01-.02.02-.07.02-.14v-.76Z"/>
      <path class="cls-4" d="M265.3,6.71h-7.15c-.07,0-.12-.02-.14-.05-.02-.03-.03-.08-.03-.13v-.61c0-.06,0-.11.03-.13s.06-.04.14-.04h1.62v-2.27c0-.06.01-.1.03-.13s.07-.03.13-.03h.82c.07,0,.11.01.13.03.02.02.03.07.03.13v2.27h.67v-2.27c0-.06.01-.1.03-.13.02-.02.07-.03.13-.03h.82c.07,0,.12.01.14.03.02.02.03.07.03.13v2.27h2.55c.12,0,.17.06.17.18v.61c0,.12-.06.18-.17.18ZM264.35,4.65c-.01.08-.03.14-.06.15-.03.02-.08.02-.17,0l-.73-.08c-.09-.01-.14-.04-.15-.08,0-.04,0-.09,0-.15.04-.2.07-.42.1-.66.03-.23.05-.47.07-.71s.03-.48.03-.72c0-.24,0-.47,0-.69,0-.08-.01-.15-.04-.18-.03-.04-.1-.05-.23-.05h-4.04c-.05,0-.1,0-.13-.02-.03-.01-.05-.06-.05-.13v-.67c0-.06.02-.1.05-.12.03-.02.08-.03.13-.03h4.87c.2,0,.35.05.45.14.1.09.15.26.15.5,0,.75-.03,1.41-.08,2-.05.58-.11,1.08-.19,1.5Z"/>
      <path class="cls-4" d="M272.86,8.13h-.82c-.12,0-.17-.06-.17-.17v-1.57c0-.08-.04-.13-.12-.13h-3.99s-.08,0-.12-.03c-.03-.02-.05-.06-.05-.12v-.66c0-.08.02-.13.05-.14.03-.01.07-.02.12-.02h.79v-.7h-1.74c-.07,0-.11-.01-.13-.03-.02-.02-.03-.06-.03-.13v-.61c0-.06,0-.11.03-.13s.06-.04.14-.04h7.15c.12,0,.17.06.17.18v.61c0,.07-.02.11-.05.13-.03.02-.07.03-.12.03h-1.74v.7h.22c.12,0,.22,0,.29.03.08.02.13.06.17.11.04.05.07.12.09.2s.02.18.02.3v2.03c0,.11-.05.17-.16.17ZM270.37,3.25c-.4,0-.76-.04-1.09-.12s-.62-.18-.85-.32c-.24-.14-.42-.3-.55-.5-.13-.19-.2-.4-.2-.64s.07-.45.2-.64c.13-.19.32-.36.55-.5.24-.14.52-.25.85-.32s.69-.11,1.09-.11.76.04,1.09.11.61.18.85.32c.24.14.42.3.54.5.13.19.19.41.19.64s-.06.45-.19.64c-.13.19-.31.36-.54.49s-.52.24-.85.32-.7.12-1.09.12ZM270.37,1.03c-.48,0-.85.06-1.12.19s-.39.28-.39.46c0,.08.03.16.1.23.07.08.17.15.3.21.13.06.29.11.47.15.19.04.4.06.64.06.47,0,.84-.07,1.1-.2s.39-.29.39-.45c0-.17-.13-.33-.39-.46s-.63-.19-1.1-.19ZM269.69,5.3h1.37v-.7h-1.37v.7Z"/>
      <path class="cls-4" d="M276.35,6.38c-.08.04-.14.07-.18.07s-.08-.03-.13-.09l-.39-.59c-.04-.06-.05-.11-.04-.16.01-.05.04-.09.1-.12.84-.48,1.5-1.03,1.98-1.66.48-.63.78-1.31.88-2.05.02-.12-.03-.18-.13-.18h-2.32c-.07,0-.12-.01-.13-.04s-.03-.07-.03-.13v-.64c0-.07.01-.11.03-.13.02-.02.06-.03.12-.03h3.03c.28,0,.46.06.55.17.09.12.13.3.11.55-.03.51-.14,1-.31,1.48-.17.48-.41.94-.7,1.37-.29.43-.65.83-1.06,1.2s-.88.7-1.39.99ZM281.86,8.13h-.83c-.06,0-.1,0-.12-.03-.02-.02-.03-.06-.03-.13V.16c0-.06.01-.1.03-.13s.06-.03.12-.03h.83c.06,0,.1.01.12.03s.03.07.03.13v7.81c0,.07-.01.11-.03.13-.02.02-.06.03-.12.03Z"/>
      <path class="cls-4" d="M288.88,4.76c-.77.12-1.55.2-2.35.22-.8.02-1.59.02-2.39.01-.07,0-.11-.02-.13-.05s-.03-.07-.03-.14v-.59c0-.06.01-.11.03-.13.02-.03.06-.04.12-.04.25.01.5.02.75.02h.75v-1.49c0-.06.01-.1.03-.13.02-.02.07-.03.13-.03h.77c.07,0,.12.01.14.03s.03.07.03.13v1.46c.33-.01.67-.03,1-.05s.66-.06.99-.11c.08-.01.14,0,.16,0,.03.01.04.05.05.12l.07.59c.01.07,0,.11-.03.14-.03.02-.07.04-.12.05ZM288.48,3.28c-.02.08-.05.14-.07.15-.03.02-.08.02-.16,0l-.74-.08c-.08-.01-.13-.04-.13-.08s0-.09,0-.15c.04-.21.07-.44.1-.7.03-.26.04-.52.04-.77,0-.08-.01-.15-.03-.18s-.1-.05-.22-.05h-2.52c-.06,0-.1,0-.13-.02-.03-.01-.05-.06-.05-.13v-.65c0-.06.02-.1.05-.12.03-.02.08-.03.13-.03h3.34c.2,0,.35.05.45.14.1.09.15.26.15.5,0,.18,0,.37-.02.57-.01.2-.02.39-.04.59-.02.2-.04.38-.06.56-.02.17-.05.33-.08.46ZM290.52,7.99h-4.59c-.12,0-.21,0-.29-.03-.08-.02-.13-.05-.17-.1-.04-.05-.07-.11-.09-.19s-.03-.18-.03-.3v-1.69c0-.12.06-.18.17-.18h.82c.12,0,.17.06.17.18v1.2c0,.08.04.13.12.13h3.89s.08,0,.12.03c.04.02.05.06.05.12v.66c0,.08-.02.12-.05.13-.04.01-.08.02-.12.02ZM291.38,3.7h-.98v2.01c0,.06-.01.11-.03.13-.02.02-.06.03-.12.03h-.84c-.06,0-.1-.01-.12-.03-.02-.02-.03-.07-.03-.13V.16c0-.06.01-.1.03-.13.02-.02.06-.03.12-.03h.84c.06,0,.1.01.12.03.02.02.03.07.03.13v2.57h.98c.05,0,.09,0,.12.02.03.01.05.06.05.14v.64c0,.06-.01.1-.04.13-.03.02-.07.03-.13.03Z"/>
    </g>
  </g>
</svg>